<mxfile host="app.diagrams.net" agent="Mozilla/5.0 (Windows NT 10.0; Win64; x64) AppleWebKit/537.36 (KHTML, like Gecko) Chrome/127.0.0.0 Safari/537.36" version="24.7.6">
  <diagram name="Page-1" id="CyjvDFudh4OZvCmXFipF">
    <mxGraphModel dx="866" dy="460" grid="1" gridSize="10" guides="1" tooltips="1" connect="1" arrows="1" fold="1" page="1" pageScale="1" pageWidth="850" pageHeight="1100" math="0" shadow="0">
      <root>
        <mxCell id="0" />
        <mxCell id="1" parent="0" />
        <mxCell id="PyNdP-7tMBmTOxRlOTpd-1" value="Level 1 Data Flow Diagram" style="text;html=1;align=center;verticalAlign=middle;resizable=0;points=[];autosize=1;strokeColor=none;fillColor=none;fontSize=21;fontStyle=1" parent="1" vertex="1">
          <mxGeometry x="285" y="10" width="280" height="40" as="geometry" />
        </mxCell>
        <mxCell id="PyNdP-7tMBmTOxRlOTpd-2" value="Customer" style="rounded=0;whiteSpace=wrap;html=1;fontSize=18;" parent="1" vertex="1">
          <mxGeometry x="30" y="140" width="120" height="50" as="geometry" />
        </mxCell>
        <mxCell id="PyNdP-7tMBmTOxRlOTpd-3" value="&lt;b&gt;&lt;font style=&quot;font-size: 18px;&quot;&gt;Customer Registration&lt;/font&gt;&lt;/b&gt;" style="ellipse;whiteSpace=wrap;html=1;aspect=fixed;" parent="1" vertex="1">
          <mxGeometry x="350" y="90" width="150" height="150" as="geometry" />
        </mxCell>
        <mxCell id="PyNdP-7tMBmTOxRlOTpd-4" value="" style="endArrow=none;html=1;rounded=0;entryX=0.889;entryY=0.188;entryDx=0;entryDy=0;exitX=0.1;exitY=0.193;exitDx=0;exitDy=0;exitPerimeter=0;entryPerimeter=0;" parent="1" source="PyNdP-7tMBmTOxRlOTpd-3" target="PyNdP-7tMBmTOxRlOTpd-3" edge="1">
          <mxGeometry width="50" height="50" relative="1" as="geometry">
            <mxPoint x="380" y="210" as="sourcePoint" />
            <mxPoint x="430" y="160" as="targetPoint" />
          </mxGeometry>
        </mxCell>
        <mxCell id="PyNdP-7tMBmTOxRlOTpd-5" value="1.0" style="text;html=1;align=center;verticalAlign=middle;resizable=0;points=[];autosize=1;strokeColor=none;fillColor=none;fontStyle=1;fontSize=16;" parent="1" vertex="1">
          <mxGeometry x="400" y="90" width="50" height="30" as="geometry" />
        </mxCell>
        <mxCell id="PyNdP-7tMBmTOxRlOTpd-6" value="Registration Database" style="shape=partialRectangle;whiteSpace=wrap;html=1;left=0;right=0;fillColor=none;fontStyle=0;fontSize=14;" parent="1" vertex="1">
          <mxGeometry x="710" y="140" width="120" height="40" as="geometry" />
        </mxCell>
        <mxCell id="PyNdP-7tMBmTOxRlOTpd-7" value="" style="endArrow=classic;html=1;rounded=0;exitX=1;exitY=0.25;exitDx=0;exitDy=0;entryX=-0.005;entryY=0.405;entryDx=0;entryDy=0;entryPerimeter=0;" parent="1" source="PyNdP-7tMBmTOxRlOTpd-2" target="PyNdP-7tMBmTOxRlOTpd-3" edge="1">
          <mxGeometry width="50" height="50" relative="1" as="geometry">
            <mxPoint x="380" y="260" as="sourcePoint" />
            <mxPoint x="430" y="210" as="targetPoint" />
          </mxGeometry>
        </mxCell>
        <mxCell id="PyNdP-7tMBmTOxRlOTpd-8" value="&amp;nbsp;Registration Request&amp;nbsp;" style="edgeLabel;html=1;align=center;verticalAlign=middle;resizable=0;points=[];" parent="PyNdP-7tMBmTOxRlOTpd-7" vertex="1" connectable="0">
          <mxGeometry x="0.4801" y="-2" relative="1" as="geometry">
            <mxPoint x="-36" y="-3" as="offset" />
          </mxGeometry>
        </mxCell>
        <mxCell id="PyNdP-7tMBmTOxRlOTpd-10" value="" style="endArrow=classic;html=1;rounded=0;exitX=-0.005;exitY=0.57;exitDx=0;exitDy=0;exitPerimeter=0;entryX=1;entryY=0.75;entryDx=0;entryDy=0;" parent="1" source="PyNdP-7tMBmTOxRlOTpd-3" target="PyNdP-7tMBmTOxRlOTpd-2" edge="1">
          <mxGeometry width="50" height="50" relative="1" as="geometry">
            <mxPoint x="418.04999999999995" y="178" as="sourcePoint" />
            <mxPoint x="190" y="180" as="targetPoint" />
          </mxGeometry>
        </mxCell>
        <mxCell id="PyNdP-7tMBmTOxRlOTpd-11" value="&amp;nbsp;Received Card &amp;amp; Password&amp;nbsp;" style="edgeLabel;html=1;align=center;verticalAlign=middle;resizable=0;points=[];" parent="PyNdP-7tMBmTOxRlOTpd-10" vertex="1" connectable="0">
          <mxGeometry x="0.4801" y="-2" relative="1" as="geometry">
            <mxPoint x="59" y="4" as="offset" />
          </mxGeometry>
        </mxCell>
        <mxCell id="PyNdP-7tMBmTOxRlOTpd-12" value="" style="endArrow=classic;html=1;rounded=0;exitX=1.022;exitY=0.397;exitDx=0;exitDy=0;exitPerimeter=0;" parent="1" source="PyNdP-7tMBmTOxRlOTpd-3" edge="1">
          <mxGeometry width="50" height="50" relative="1" as="geometry">
            <mxPoint x="500" y="142" as="sourcePoint" />
            <mxPoint x="700" y="150" as="targetPoint" />
          </mxGeometry>
        </mxCell>
        <mxCell id="PyNdP-7tMBmTOxRlOTpd-13" value="&amp;nbsp;Check Details&amp;nbsp;" style="edgeLabel;html=1;align=center;verticalAlign=middle;resizable=0;points=[];" parent="PyNdP-7tMBmTOxRlOTpd-12" vertex="1" connectable="0">
          <mxGeometry x="0.4801" y="-2" relative="1" as="geometry">
            <mxPoint x="-36" y="-3" as="offset" />
          </mxGeometry>
        </mxCell>
        <mxCell id="PyNdP-7tMBmTOxRlOTpd-17" value="" style="endArrow=classic;html=1;rounded=0;exitX=-0.013;exitY=0.601;exitDx=0;exitDy=0;exitPerimeter=0;entryX=1;entryY=0.75;entryDx=0;entryDy=0;" parent="1" edge="1">
          <mxGeometry width="50" height="50" relative="1" as="geometry">
            <mxPoint x="698" y="172" as="sourcePoint" />
            <mxPoint x="500" y="170" as="targetPoint" />
          </mxGeometry>
        </mxCell>
        <mxCell id="PyNdP-7tMBmTOxRlOTpd-18" value="Confirm Registration" style="edgeLabel;html=1;align=center;verticalAlign=middle;resizable=0;points=[];" parent="PyNdP-7tMBmTOxRlOTpd-17" vertex="1" connectable="0">
          <mxGeometry x="0.4801" y="-2" relative="1" as="geometry">
            <mxPoint x="59" y="4" as="offset" />
          </mxGeometry>
        </mxCell>
        <mxCell id="PyNdP-7tMBmTOxRlOTpd-19" value="Customer" style="rounded=0;whiteSpace=wrap;html=1;fontSize=18;" parent="1" vertex="1">
          <mxGeometry x="25" y="330" width="120" height="50" as="geometry" />
        </mxCell>
        <mxCell id="PyNdP-7tMBmTOxRlOTpd-20" value="&lt;span style=&quot;font-size: 18px;&quot;&gt;&lt;b&gt;Login&lt;/b&gt;&lt;/span&gt;" style="ellipse;whiteSpace=wrap;html=1;aspect=fixed;" parent="1" vertex="1">
          <mxGeometry x="345" y="280" width="150" height="150" as="geometry" />
        </mxCell>
        <mxCell id="PyNdP-7tMBmTOxRlOTpd-21" value="" style="endArrow=none;html=1;rounded=0;entryX=0.889;entryY=0.188;entryDx=0;entryDy=0;exitX=0.1;exitY=0.193;exitDx=0;exitDy=0;exitPerimeter=0;entryPerimeter=0;" parent="1" source="PyNdP-7tMBmTOxRlOTpd-20" target="PyNdP-7tMBmTOxRlOTpd-20" edge="1">
          <mxGeometry width="50" height="50" relative="1" as="geometry">
            <mxPoint x="375" y="400" as="sourcePoint" />
            <mxPoint x="425" y="350" as="targetPoint" />
          </mxGeometry>
        </mxCell>
        <mxCell id="PyNdP-7tMBmTOxRlOTpd-22" value="2.0" style="text;html=1;align=center;verticalAlign=middle;resizable=0;points=[];autosize=1;strokeColor=none;fillColor=none;fontStyle=1;fontSize=16;" parent="1" vertex="1">
          <mxGeometry x="395" y="280" width="50" height="30" as="geometry" />
        </mxCell>
        <mxCell id="PyNdP-7tMBmTOxRlOTpd-23" value="Login&lt;div&gt;&amp;nbsp;Database&lt;/div&gt;" style="shape=partialRectangle;whiteSpace=wrap;html=1;left=0;right=0;fillColor=none;fontStyle=0;fontSize=14;" parent="1" vertex="1">
          <mxGeometry x="705" y="330" width="120" height="40" as="geometry" />
        </mxCell>
        <mxCell id="PyNdP-7tMBmTOxRlOTpd-24" value="" style="endArrow=classic;html=1;rounded=0;exitX=1;exitY=0.25;exitDx=0;exitDy=0;entryX=-0.005;entryY=0.405;entryDx=0;entryDy=0;entryPerimeter=0;" parent="1" source="PyNdP-7tMBmTOxRlOTpd-19" target="PyNdP-7tMBmTOxRlOTpd-20" edge="1">
          <mxGeometry width="50" height="50" relative="1" as="geometry">
            <mxPoint x="375" y="450" as="sourcePoint" />
            <mxPoint x="425" y="400" as="targetPoint" />
          </mxGeometry>
        </mxCell>
        <mxCell id="PyNdP-7tMBmTOxRlOTpd-25" value="&amp;nbsp;Login Request&amp;nbsp;" style="edgeLabel;html=1;align=center;verticalAlign=middle;resizable=0;points=[];" parent="PyNdP-7tMBmTOxRlOTpd-24" vertex="1" connectable="0">
          <mxGeometry x="0.4801" y="-2" relative="1" as="geometry">
            <mxPoint x="-36" y="-3" as="offset" />
          </mxGeometry>
        </mxCell>
        <mxCell id="PyNdP-7tMBmTOxRlOTpd-26" value="" style="endArrow=classic;html=1;rounded=0;exitX=-0.005;exitY=0.57;exitDx=0;exitDy=0;exitPerimeter=0;entryX=1;entryY=0.75;entryDx=0;entryDy=0;" parent="1" source="PyNdP-7tMBmTOxRlOTpd-20" target="PyNdP-7tMBmTOxRlOTpd-19" edge="1">
          <mxGeometry width="50" height="50" relative="1" as="geometry">
            <mxPoint x="413.04999999999995" y="368" as="sourcePoint" />
            <mxPoint x="185" y="370" as="targetPoint" />
          </mxGeometry>
        </mxCell>
        <mxCell id="PyNdP-7tMBmTOxRlOTpd-27" value="&amp;nbsp;Get Access Permission&amp;nbsp;&amp;nbsp;" style="edgeLabel;html=1;align=center;verticalAlign=middle;resizable=0;points=[];" parent="PyNdP-7tMBmTOxRlOTpd-26" vertex="1" connectable="0">
          <mxGeometry x="0.4801" y="-2" relative="1" as="geometry">
            <mxPoint x="59" y="4" as="offset" />
          </mxGeometry>
        </mxCell>
        <mxCell id="PyNdP-7tMBmTOxRlOTpd-28" value="" style="endArrow=classic;html=1;rounded=0;exitX=1.022;exitY=0.397;exitDx=0;exitDy=0;exitPerimeter=0;" parent="1" source="PyNdP-7tMBmTOxRlOTpd-20" edge="1">
          <mxGeometry width="50" height="50" relative="1" as="geometry">
            <mxPoint x="495" y="332" as="sourcePoint" />
            <mxPoint x="695" y="340" as="targetPoint" />
          </mxGeometry>
        </mxCell>
        <mxCell id="PyNdP-7tMBmTOxRlOTpd-29" value="&amp;nbsp;Check Details&amp;nbsp;" style="edgeLabel;html=1;align=center;verticalAlign=middle;resizable=0;points=[];" parent="PyNdP-7tMBmTOxRlOTpd-28" vertex="1" connectable="0">
          <mxGeometry x="0.4801" y="-2" relative="1" as="geometry">
            <mxPoint x="-36" y="-3" as="offset" />
          </mxGeometry>
        </mxCell>
        <mxCell id="PyNdP-7tMBmTOxRlOTpd-30" value="" style="endArrow=classic;html=1;rounded=0;exitX=-0.013;exitY=0.601;exitDx=0;exitDy=0;exitPerimeter=0;entryX=1;entryY=0.75;entryDx=0;entryDy=0;" parent="1" edge="1">
          <mxGeometry width="50" height="50" relative="1" as="geometry">
            <mxPoint x="693" y="362" as="sourcePoint" />
            <mxPoint x="495" y="360" as="targetPoint" />
          </mxGeometry>
        </mxCell>
        <mxCell id="PyNdP-7tMBmTOxRlOTpd-31" value="&amp;nbsp;Confirm Login&amp;nbsp;" style="edgeLabel;html=1;align=center;verticalAlign=middle;resizable=0;points=[];" parent="PyNdP-7tMBmTOxRlOTpd-30" vertex="1" connectable="0">
          <mxGeometry x="0.4801" y="-2" relative="1" as="geometry">
            <mxPoint x="59" y="4" as="offset" />
          </mxGeometry>
        </mxCell>
        <mxCell id="PyNdP-7tMBmTOxRlOTpd-45" value="Customer" style="rounded=0;whiteSpace=wrap;html=1;fontSize=18;" parent="1" vertex="1">
          <mxGeometry x="25" y="530" width="120" height="50" as="geometry" />
        </mxCell>
        <mxCell id="PyNdP-7tMBmTOxRlOTpd-46" value="&lt;b&gt;&lt;font style=&quot;font-size: 18px;&quot;&gt;Purchase management&lt;/font&gt;&lt;/b&gt;" style="ellipse;whiteSpace=wrap;html=1;aspect=fixed;" parent="1" vertex="1">
          <mxGeometry x="345" y="480" width="150" height="150" as="geometry" />
        </mxCell>
        <mxCell id="PyNdP-7tMBmTOxRlOTpd-47" value="" style="endArrow=none;html=1;rounded=0;entryX=0.889;entryY=0.188;entryDx=0;entryDy=0;exitX=0.1;exitY=0.193;exitDx=0;exitDy=0;exitPerimeter=0;entryPerimeter=0;" parent="1" source="PyNdP-7tMBmTOxRlOTpd-46" target="PyNdP-7tMBmTOxRlOTpd-46" edge="1">
          <mxGeometry width="50" height="50" relative="1" as="geometry">
            <mxPoint x="375" y="600" as="sourcePoint" />
            <mxPoint x="425" y="550" as="targetPoint" />
          </mxGeometry>
        </mxCell>
        <mxCell id="PyNdP-7tMBmTOxRlOTpd-48" value="3.0" style="text;html=1;align=center;verticalAlign=middle;resizable=0;points=[];autosize=1;strokeColor=none;fillColor=none;fontStyle=1;fontSize=16;" parent="1" vertex="1">
          <mxGeometry x="395" y="480" width="50" height="30" as="geometry" />
        </mxCell>
        <mxCell id="PyNdP-7tMBmTOxRlOTpd-49" value="&lt;div&gt;Billing&lt;/div&gt;&lt;div&gt;&amp;nbsp;Database&lt;/div&gt;" style="shape=partialRectangle;whiteSpace=wrap;html=1;left=0;right=0;fillColor=none;fontStyle=0;fontSize=14;" parent="1" vertex="1">
          <mxGeometry x="705" y="530" width="120" height="40" as="geometry" />
        </mxCell>
        <mxCell id="PyNdP-7tMBmTOxRlOTpd-50" value="" style="endArrow=classic;html=1;rounded=0;exitX=1;exitY=0.25;exitDx=0;exitDy=0;entryX=-0.005;entryY=0.405;entryDx=0;entryDy=0;entryPerimeter=0;" parent="1" source="PyNdP-7tMBmTOxRlOTpd-45" target="PyNdP-7tMBmTOxRlOTpd-46" edge="1">
          <mxGeometry width="50" height="50" relative="1" as="geometry">
            <mxPoint x="375" y="650" as="sourcePoint" />
            <mxPoint x="425" y="600" as="targetPoint" />
          </mxGeometry>
        </mxCell>
        <mxCell id="PyNdP-7tMBmTOxRlOTpd-51" value="&amp;nbsp; Purchase Request&amp;nbsp;&amp;nbsp;" style="edgeLabel;html=1;align=center;verticalAlign=middle;resizable=0;points=[];" parent="PyNdP-7tMBmTOxRlOTpd-50" vertex="1" connectable="0">
          <mxGeometry x="0.4801" y="-2" relative="1" as="geometry">
            <mxPoint x="-36" y="-3" as="offset" />
          </mxGeometry>
        </mxCell>
        <mxCell id="PyNdP-7tMBmTOxRlOTpd-52" value="" style="endArrow=classic;html=1;rounded=0;exitX=-0.005;exitY=0.57;exitDx=0;exitDy=0;exitPerimeter=0;entryX=1;entryY=0.75;entryDx=0;entryDy=0;" parent="1" source="PyNdP-7tMBmTOxRlOTpd-46" target="PyNdP-7tMBmTOxRlOTpd-45" edge="1">
          <mxGeometry width="50" height="50" relative="1" as="geometry">
            <mxPoint x="413.04999999999995" y="568" as="sourcePoint" />
            <mxPoint x="185" y="570" as="targetPoint" />
          </mxGeometry>
        </mxCell>
        <mxCell id="PyNdP-7tMBmTOxRlOTpd-53" value="Receives Bill" style="edgeLabel;html=1;align=center;verticalAlign=middle;resizable=0;points=[];" parent="PyNdP-7tMBmTOxRlOTpd-52" vertex="1" connectable="0">
          <mxGeometry x="0.4801" y="-2" relative="1" as="geometry">
            <mxPoint x="59" y="4" as="offset" />
          </mxGeometry>
        </mxCell>
        <mxCell id="PyNdP-7tMBmTOxRlOTpd-54" value="" style="endArrow=classic;html=1;rounded=0;exitX=1.022;exitY=0.397;exitDx=0;exitDy=0;exitPerimeter=0;" parent="1" source="PyNdP-7tMBmTOxRlOTpd-46" edge="1">
          <mxGeometry width="50" height="50" relative="1" as="geometry">
            <mxPoint x="495" y="532" as="sourcePoint" />
            <mxPoint x="695" y="540" as="targetPoint" />
          </mxGeometry>
        </mxCell>
        <mxCell id="PyNdP-7tMBmTOxRlOTpd-55" value="Gets Product info Request" style="edgeLabel;html=1;align=center;verticalAlign=middle;resizable=0;points=[];" parent="PyNdP-7tMBmTOxRlOTpd-54" vertex="1" connectable="0">
          <mxGeometry x="0.4801" y="-2" relative="1" as="geometry">
            <mxPoint x="-36" y="-3" as="offset" />
          </mxGeometry>
        </mxCell>
        <mxCell id="PyNdP-7tMBmTOxRlOTpd-56" value="" style="endArrow=classic;html=1;rounded=0;exitX=0;exitY=0.75;exitDx=0;exitDy=0;entryX=1;entryY=0.75;entryDx=0;entryDy=0;" parent="1" source="PyNdP-7tMBmTOxRlOTpd-49" edge="1">
          <mxGeometry width="50" height="50" relative="1" as="geometry">
            <mxPoint x="693" y="562" as="sourcePoint" />
            <mxPoint x="495" y="560" as="targetPoint" />
          </mxGeometry>
        </mxCell>
        <mxCell id="PyNdP-7tMBmTOxRlOTpd-59" value="&amp;nbsp;Gets Response" style="edgeLabel;html=1;align=center;verticalAlign=middle;resizable=0;points=[];" parent="PyNdP-7tMBmTOxRlOTpd-56" vertex="1" connectable="0">
          <mxGeometry x="0.2384" y="-2" relative="1" as="geometry">
            <mxPoint x="29" as="offset" />
          </mxGeometry>
        </mxCell>
        <mxCell id="PyNdP-7tMBmTOxRlOTpd-60" value="Counter Staff" style="rounded=0;whiteSpace=wrap;html=1;fontSize=18;" parent="1" vertex="1">
          <mxGeometry x="20" y="740" width="120" height="50" as="geometry" />
        </mxCell>
        <mxCell id="PyNdP-7tMBmTOxRlOTpd-61" value="&lt;span style=&quot;font-size: 18px;&quot;&gt;&lt;b&gt;Bill&amp;nbsp;&lt;/b&gt;&lt;/span&gt;&lt;div&gt;&lt;span style=&quot;font-size: 18px;&quot;&gt;&lt;b&gt;Creation&lt;/b&gt;&lt;/span&gt;&lt;/div&gt;" style="ellipse;whiteSpace=wrap;html=1;aspect=fixed;" parent="1" vertex="1">
          <mxGeometry x="340" y="690" width="150" height="150" as="geometry" />
        </mxCell>
        <mxCell id="PyNdP-7tMBmTOxRlOTpd-62" value="" style="endArrow=none;html=1;rounded=0;entryX=0.889;entryY=0.188;entryDx=0;entryDy=0;exitX=0.1;exitY=0.193;exitDx=0;exitDy=0;exitPerimeter=0;entryPerimeter=0;" parent="1" source="PyNdP-7tMBmTOxRlOTpd-61" target="PyNdP-7tMBmTOxRlOTpd-61" edge="1">
          <mxGeometry width="50" height="50" relative="1" as="geometry">
            <mxPoint x="370" y="810" as="sourcePoint" />
            <mxPoint x="420" y="760" as="targetPoint" />
          </mxGeometry>
        </mxCell>
        <mxCell id="PyNdP-7tMBmTOxRlOTpd-63" value="4.0" style="text;html=1;align=center;verticalAlign=middle;resizable=0;points=[];autosize=1;strokeColor=none;fillColor=none;fontStyle=1;fontSize=16;" parent="1" vertex="1">
          <mxGeometry x="390" y="690" width="50" height="30" as="geometry" />
        </mxCell>
        <mxCell id="PyNdP-7tMBmTOxRlOTpd-64" value="Billing&amp;nbsp;&lt;div&gt;Database&lt;/div&gt;" style="shape=partialRectangle;whiteSpace=wrap;html=1;left=0;right=0;fillColor=none;fontStyle=0;fontSize=14;" parent="1" vertex="1">
          <mxGeometry x="700" y="740" width="120" height="40" as="geometry" />
        </mxCell>
        <mxCell id="PyNdP-7tMBmTOxRlOTpd-65" value="" style="endArrow=classic;html=1;rounded=0;exitX=1;exitY=0.25;exitDx=0;exitDy=0;entryX=-0.005;entryY=0.405;entryDx=0;entryDy=0;entryPerimeter=0;" parent="1" edge="1">
          <mxGeometry width="50" height="50" relative="1" as="geometry">
            <mxPoint x="140" y="765.88" as="sourcePoint" />
            <mxPoint x="339.2499999999998" y="764.13" as="targetPoint" />
            <Array as="points">
              <mxPoint x="190" y="764.38" />
            </Array>
          </mxGeometry>
        </mxCell>
        <mxCell id="PyNdP-7tMBmTOxRlOTpd-66" value="Create Bill&amp;nbsp;" style="edgeLabel;html=1;align=center;verticalAlign=middle;resizable=0;points=[];" parent="PyNdP-7tMBmTOxRlOTpd-65" vertex="1" connectable="0">
          <mxGeometry x="0.4801" y="-2" relative="1" as="geometry">
            <mxPoint x="-36" y="-3" as="offset" />
          </mxGeometry>
        </mxCell>
        <mxCell id="PyNdP-7tMBmTOxRlOTpd-69" value="" style="endArrow=classic;html=1;rounded=0;exitX=1.022;exitY=0.397;exitDx=0;exitDy=0;exitPerimeter=0;" parent="1" edge="1">
          <mxGeometry width="50" height="50" relative="1" as="geometry">
            <mxPoint x="489.99999999999994" y="759.41" as="sourcePoint" />
            <mxPoint x="686.7" y="759.86" as="targetPoint" />
          </mxGeometry>
        </mxCell>
        <mxCell id="PyNdP-7tMBmTOxRlOTpd-70" value="Update to database" style="edgeLabel;html=1;align=center;verticalAlign=middle;resizable=0;points=[];" parent="PyNdP-7tMBmTOxRlOTpd-69" vertex="1" connectable="0">
          <mxGeometry x="0.4801" y="-2" relative="1" as="geometry">
            <mxPoint x="-36" y="-3" as="offset" />
          </mxGeometry>
        </mxCell>
        <mxCell id="PyNdP-7tMBmTOxRlOTpd-73" value="Admin" style="rounded=0;whiteSpace=wrap;html=1;fontSize=18;" parent="1" vertex="1">
          <mxGeometry x="25" y="950" width="120" height="50" as="geometry" />
        </mxCell>
        <mxCell id="PyNdP-7tMBmTOxRlOTpd-74" value="&lt;b&gt;&lt;font style=&quot;font-size: 18px;&quot;&gt;Stock Management&lt;/font&gt;&lt;/b&gt;" style="ellipse;whiteSpace=wrap;html=1;aspect=fixed;" parent="1" vertex="1">
          <mxGeometry x="345" y="900" width="150" height="150" as="geometry" />
        </mxCell>
        <mxCell id="PyNdP-7tMBmTOxRlOTpd-75" value="" style="endArrow=none;html=1;rounded=0;entryX=0.889;entryY=0.188;entryDx=0;entryDy=0;exitX=0.1;exitY=0.193;exitDx=0;exitDy=0;exitPerimeter=0;entryPerimeter=0;" parent="1" source="PyNdP-7tMBmTOxRlOTpd-74" target="PyNdP-7tMBmTOxRlOTpd-74" edge="1">
          <mxGeometry width="50" height="50" relative="1" as="geometry">
            <mxPoint x="375" y="1020" as="sourcePoint" />
            <mxPoint x="425" y="970" as="targetPoint" />
          </mxGeometry>
        </mxCell>
        <mxCell id="PyNdP-7tMBmTOxRlOTpd-76" value="5.0" style="text;html=1;align=center;verticalAlign=middle;resizable=0;points=[];autosize=1;strokeColor=none;fillColor=none;fontStyle=1;fontSize=16;" parent="1" vertex="1">
          <mxGeometry x="395" y="900" width="50" height="30" as="geometry" />
        </mxCell>
        <mxCell id="PyNdP-7tMBmTOxRlOTpd-77" value="Stock&amp;nbsp;&lt;div&gt;Database&lt;/div&gt;" style="shape=partialRectangle;whiteSpace=wrap;html=1;left=0;right=0;fillColor=none;fontStyle=0;fontSize=14;" parent="1" vertex="1">
          <mxGeometry x="705" y="950" width="120" height="40" as="geometry" />
        </mxCell>
        <mxCell id="PyNdP-7tMBmTOxRlOTpd-78" value="" style="endArrow=classic;html=1;rounded=0;exitX=1;exitY=0.25;exitDx=0;exitDy=0;entryX=-0.005;entryY=0.405;entryDx=0;entryDy=0;entryPerimeter=0;" parent="1" source="PyNdP-7tMBmTOxRlOTpd-73" target="PyNdP-7tMBmTOxRlOTpd-74" edge="1">
          <mxGeometry width="50" height="50" relative="1" as="geometry">
            <mxPoint x="375" y="1070" as="sourcePoint" />
            <mxPoint x="425" y="1020" as="targetPoint" />
          </mxGeometry>
        </mxCell>
        <mxCell id="PyNdP-7tMBmTOxRlOTpd-79" value="Update Stock Details" style="edgeLabel;html=1;align=center;verticalAlign=middle;resizable=0;points=[];" parent="PyNdP-7tMBmTOxRlOTpd-78" vertex="1" connectable="0">
          <mxGeometry x="0.4801" y="-2" relative="1" as="geometry">
            <mxPoint x="-36" y="-3" as="offset" />
          </mxGeometry>
        </mxCell>
        <mxCell id="PyNdP-7tMBmTOxRlOTpd-80" value="" style="endArrow=classic;html=1;rounded=0;exitX=-0.005;exitY=0.57;exitDx=0;exitDy=0;exitPerimeter=0;entryX=1;entryY=0.75;entryDx=0;entryDy=0;" parent="1" source="PyNdP-7tMBmTOxRlOTpd-74" target="PyNdP-7tMBmTOxRlOTpd-73" edge="1">
          <mxGeometry width="50" height="50" relative="1" as="geometry">
            <mxPoint x="413.04999999999995" y="988" as="sourcePoint" />
            <mxPoint x="185" y="990" as="targetPoint" />
          </mxGeometry>
        </mxCell>
        <mxCell id="PyNdP-7tMBmTOxRlOTpd-81" value="&amp;nbsp;Receive Stock Data&amp;nbsp;" style="edgeLabel;html=1;align=center;verticalAlign=middle;resizable=0;points=[];" parent="PyNdP-7tMBmTOxRlOTpd-80" vertex="1" connectable="0">
          <mxGeometry x="0.4801" y="-2" relative="1" as="geometry">
            <mxPoint x="59" y="4" as="offset" />
          </mxGeometry>
        </mxCell>
        <mxCell id="PyNdP-7tMBmTOxRlOTpd-82" value="" style="endArrow=classic;html=1;rounded=0;exitX=1.022;exitY=0.397;exitDx=0;exitDy=0;exitPerimeter=0;" parent="1" source="PyNdP-7tMBmTOxRlOTpd-74" edge="1">
          <mxGeometry width="50" height="50" relative="1" as="geometry">
            <mxPoint x="495" y="952" as="sourcePoint" />
            <mxPoint x="695" y="960" as="targetPoint" />
          </mxGeometry>
        </mxCell>
        <mxCell id="PyNdP-7tMBmTOxRlOTpd-83" value="&amp;nbsp;Check Details&amp;nbsp;" style="edgeLabel;html=1;align=center;verticalAlign=middle;resizable=0;points=[];" parent="PyNdP-7tMBmTOxRlOTpd-82" vertex="1" connectable="0">
          <mxGeometry x="0.4801" y="-2" relative="1" as="geometry">
            <mxPoint x="-36" y="-3" as="offset" />
          </mxGeometry>
        </mxCell>
        <mxCell id="PyNdP-7tMBmTOxRlOTpd-84" value="" style="endArrow=classic;html=1;rounded=0;exitX=-0.013;exitY=0.601;exitDx=0;exitDy=0;exitPerimeter=0;entryX=1;entryY=0.75;entryDx=0;entryDy=0;" parent="1" edge="1">
          <mxGeometry width="50" height="50" relative="1" as="geometry">
            <mxPoint x="693" y="982" as="sourcePoint" />
            <mxPoint x="495" y="980" as="targetPoint" />
          </mxGeometry>
        </mxCell>
        <mxCell id="PyNdP-7tMBmTOxRlOTpd-85" value="Get Details" style="edgeLabel;html=1;align=center;verticalAlign=middle;resizable=0;points=[];" parent="PyNdP-7tMBmTOxRlOTpd-84" vertex="1" connectable="0">
          <mxGeometry x="0.4801" y="-2" relative="1" as="geometry">
            <mxPoint x="59" y="4" as="offset" />
          </mxGeometry>
        </mxCell>
        <mxCell id="PyNdP-7tMBmTOxRlOTpd-86" value="Admin" style="rounded=0;whiteSpace=wrap;html=1;fontSize=18;" parent="1" vertex="1">
          <mxGeometry x="22" y="1180" width="120" height="50" as="geometry" />
        </mxCell>
        <mxCell id="PyNdP-7tMBmTOxRlOTpd-87" value="&lt;b&gt;&lt;font style=&quot;font-size: 18px;&quot;&gt;Staff Info Management&lt;/font&gt;&lt;/b&gt;" style="ellipse;whiteSpace=wrap;html=1;aspect=fixed;" parent="1" vertex="1">
          <mxGeometry x="342" y="1130" width="150" height="150" as="geometry" />
        </mxCell>
        <mxCell id="PyNdP-7tMBmTOxRlOTpd-88" value="" style="endArrow=none;html=1;rounded=0;entryX=0.889;entryY=0.188;entryDx=0;entryDy=0;exitX=0.1;exitY=0.193;exitDx=0;exitDy=0;exitPerimeter=0;entryPerimeter=0;" parent="1" source="PyNdP-7tMBmTOxRlOTpd-87" target="PyNdP-7tMBmTOxRlOTpd-87" edge="1">
          <mxGeometry width="50" height="50" relative="1" as="geometry">
            <mxPoint x="372" y="1250" as="sourcePoint" />
            <mxPoint x="422" y="1200" as="targetPoint" />
          </mxGeometry>
        </mxCell>
        <mxCell id="PyNdP-7tMBmTOxRlOTpd-89" value="6.0" style="text;html=1;align=center;verticalAlign=middle;resizable=0;points=[];autosize=1;strokeColor=none;fillColor=none;fontStyle=1;fontSize=16;" parent="1" vertex="1">
          <mxGeometry x="392" y="1130" width="50" height="30" as="geometry" />
        </mxCell>
        <mxCell id="PyNdP-7tMBmTOxRlOTpd-90" value="Staff&amp;nbsp;&lt;div&gt;Database&lt;/div&gt;" style="shape=partialRectangle;whiteSpace=wrap;html=1;left=0;right=0;fillColor=none;fontStyle=0;fontSize=14;" parent="1" vertex="1">
          <mxGeometry x="702" y="1180" width="120" height="40" as="geometry" />
        </mxCell>
        <mxCell id="PyNdP-7tMBmTOxRlOTpd-91" value="" style="endArrow=classic;html=1;rounded=0;exitX=1;exitY=0.25;exitDx=0;exitDy=0;entryX=-0.005;entryY=0.405;entryDx=0;entryDy=0;entryPerimeter=0;" parent="1" source="PyNdP-7tMBmTOxRlOTpd-86" target="PyNdP-7tMBmTOxRlOTpd-87" edge="1">
          <mxGeometry width="50" height="50" relative="1" as="geometry">
            <mxPoint x="372" y="1300" as="sourcePoint" />
            <mxPoint x="422" y="1250" as="targetPoint" />
          </mxGeometry>
        </mxCell>
        <mxCell id="PyNdP-7tMBmTOxRlOTpd-92" value="Insert Update Delete staff Details" style="edgeLabel;html=1;align=center;verticalAlign=middle;resizable=0;points=[];" parent="PyNdP-7tMBmTOxRlOTpd-91" vertex="1" connectable="0">
          <mxGeometry x="0.4801" y="-2" relative="1" as="geometry">
            <mxPoint x="-57" y="-3" as="offset" />
          </mxGeometry>
        </mxCell>
        <mxCell id="PyNdP-7tMBmTOxRlOTpd-93" value="" style="endArrow=classic;html=1;rounded=0;exitX=-0.005;exitY=0.57;exitDx=0;exitDy=0;exitPerimeter=0;entryX=1;entryY=0.75;entryDx=0;entryDy=0;" parent="1" source="PyNdP-7tMBmTOxRlOTpd-87" target="PyNdP-7tMBmTOxRlOTpd-86" edge="1">
          <mxGeometry width="50" height="50" relative="1" as="geometry">
            <mxPoint x="410.04999999999995" y="1218" as="sourcePoint" />
            <mxPoint x="182" y="1220" as="targetPoint" />
          </mxGeometry>
        </mxCell>
        <mxCell id="PyNdP-7tMBmTOxRlOTpd-94" value="Access Staff Data" style="edgeLabel;html=1;align=center;verticalAlign=middle;resizable=0;points=[];" parent="PyNdP-7tMBmTOxRlOTpd-93" vertex="1" connectable="0">
          <mxGeometry x="0.4801" y="-2" relative="1" as="geometry">
            <mxPoint x="38" y="5" as="offset" />
          </mxGeometry>
        </mxCell>
        <mxCell id="PyNdP-7tMBmTOxRlOTpd-95" value="" style="endArrow=classic;html=1;rounded=0;exitX=1.022;exitY=0.397;exitDx=0;exitDy=0;exitPerimeter=0;" parent="1" source="PyNdP-7tMBmTOxRlOTpd-87" edge="1">
          <mxGeometry width="50" height="50" relative="1" as="geometry">
            <mxPoint x="492" y="1182" as="sourcePoint" />
            <mxPoint x="692" y="1190" as="targetPoint" />
          </mxGeometry>
        </mxCell>
        <mxCell id="PyNdP-7tMBmTOxRlOTpd-96" value="Update Data&amp;nbsp;" style="edgeLabel;html=1;align=center;verticalAlign=middle;resizable=0;points=[];" parent="PyNdP-7tMBmTOxRlOTpd-95" vertex="1" connectable="0">
          <mxGeometry x="0.4801" y="-2" relative="1" as="geometry">
            <mxPoint x="-36" y="-3" as="offset" />
          </mxGeometry>
        </mxCell>
        <mxCell id="PyNdP-7tMBmTOxRlOTpd-97" value="" style="endArrow=classic;html=1;rounded=0;exitX=-0.013;exitY=0.601;exitDx=0;exitDy=0;exitPerimeter=0;entryX=1;entryY=0.75;entryDx=0;entryDy=0;" parent="1" edge="1">
          <mxGeometry width="50" height="50" relative="1" as="geometry">
            <mxPoint x="690" y="1212" as="sourcePoint" />
            <mxPoint x="492" y="1210" as="targetPoint" />
          </mxGeometry>
        </mxCell>
        <mxCell id="PyNdP-7tMBmTOxRlOTpd-98" value="Gets Staff Data" style="edgeLabel;html=1;align=center;verticalAlign=middle;resizable=0;points=[];" parent="PyNdP-7tMBmTOxRlOTpd-97" vertex="1" connectable="0">
          <mxGeometry x="0.4801" y="-2" relative="1" as="geometry">
            <mxPoint x="59" y="4" as="offset" />
          </mxGeometry>
        </mxCell>
        <mxCell id="PyNdP-7tMBmTOxRlOTpd-103" value="Admin" style="rounded=0;whiteSpace=wrap;html=1;fontSize=18;" parent="1" vertex="1">
          <mxGeometry x="25" y="1370" width="120" height="50" as="geometry" />
        </mxCell>
        <mxCell id="PyNdP-7tMBmTOxRlOTpd-104" value="&lt;span style=&quot;font-size: 18px;&quot;&gt;&lt;b&gt;Order Management&lt;/b&gt;&lt;/span&gt;" style="ellipse;whiteSpace=wrap;html=1;aspect=fixed;" parent="1" vertex="1">
          <mxGeometry x="345" y="1320" width="150" height="150" as="geometry" />
        </mxCell>
        <mxCell id="PyNdP-7tMBmTOxRlOTpd-105" value="" style="endArrow=none;html=1;rounded=0;entryX=0.889;entryY=0.188;entryDx=0;entryDy=0;exitX=0.1;exitY=0.193;exitDx=0;exitDy=0;exitPerimeter=0;entryPerimeter=0;" parent="1" source="PyNdP-7tMBmTOxRlOTpd-104" target="PyNdP-7tMBmTOxRlOTpd-104" edge="1">
          <mxGeometry width="50" height="50" relative="1" as="geometry">
            <mxPoint x="375" y="1440" as="sourcePoint" />
            <mxPoint x="425" y="1390" as="targetPoint" />
          </mxGeometry>
        </mxCell>
        <mxCell id="PyNdP-7tMBmTOxRlOTpd-106" value="7.0" style="text;html=1;align=center;verticalAlign=middle;resizable=0;points=[];autosize=1;strokeColor=none;fillColor=none;fontStyle=1;fontSize=16;" parent="1" vertex="1">
          <mxGeometry x="395" y="1320" width="50" height="30" as="geometry" />
        </mxCell>
        <mxCell id="PyNdP-7tMBmTOxRlOTpd-107" value="Order&amp;nbsp;&lt;div&gt;Database&lt;/div&gt;" style="shape=partialRectangle;whiteSpace=wrap;html=1;left=0;right=0;fillColor=none;fontStyle=0;fontSize=14;" parent="1" vertex="1">
          <mxGeometry x="705" y="1370" width="120" height="40" as="geometry" />
        </mxCell>
        <mxCell id="PyNdP-7tMBmTOxRlOTpd-108" value="" style="endArrow=classic;html=1;rounded=0;exitX=1;exitY=0.25;exitDx=0;exitDy=0;entryX=-0.005;entryY=0.405;entryDx=0;entryDy=0;entryPerimeter=0;" parent="1" source="PyNdP-7tMBmTOxRlOTpd-103" target="PyNdP-7tMBmTOxRlOTpd-104" edge="1">
          <mxGeometry width="50" height="50" relative="1" as="geometry">
            <mxPoint x="375" y="1490" as="sourcePoint" />
            <mxPoint x="425" y="1440" as="targetPoint" />
          </mxGeometry>
        </mxCell>
        <mxCell id="PyNdP-7tMBmTOxRlOTpd-109" value="Purchase Order" style="edgeLabel;html=1;align=center;verticalAlign=middle;resizable=0;points=[];" parent="PyNdP-7tMBmTOxRlOTpd-108" vertex="1" connectable="0">
          <mxGeometry x="0.4801" y="-2" relative="1" as="geometry">
            <mxPoint x="-36" y="-3" as="offset" />
          </mxGeometry>
        </mxCell>
        <mxCell id="PyNdP-7tMBmTOxRlOTpd-110" value="" style="endArrow=classic;html=1;rounded=0;exitX=-0.005;exitY=0.57;exitDx=0;exitDy=0;exitPerimeter=0;entryX=1;entryY=0.75;entryDx=0;entryDy=0;" parent="1" source="PyNdP-7tMBmTOxRlOTpd-104" target="PyNdP-7tMBmTOxRlOTpd-103" edge="1">
          <mxGeometry width="50" height="50" relative="1" as="geometry">
            <mxPoint x="413.04999999999995" y="1408" as="sourcePoint" />
            <mxPoint x="185" y="1410" as="targetPoint" />
          </mxGeometry>
        </mxCell>
        <mxCell id="PyNdP-7tMBmTOxRlOTpd-111" value="Order History&amp;nbsp;" style="edgeLabel;html=1;align=center;verticalAlign=middle;resizable=0;points=[];" parent="PyNdP-7tMBmTOxRlOTpd-110" vertex="1" connectable="0">
          <mxGeometry x="0.4801" y="-2" relative="1" as="geometry">
            <mxPoint x="59" y="4" as="offset" />
          </mxGeometry>
        </mxCell>
        <mxCell id="PyNdP-7tMBmTOxRlOTpd-112" value="" style="endArrow=classic;html=1;rounded=0;exitX=1.022;exitY=0.397;exitDx=0;exitDy=0;exitPerimeter=0;" parent="1" source="PyNdP-7tMBmTOxRlOTpd-104" edge="1">
          <mxGeometry width="50" height="50" relative="1" as="geometry">
            <mxPoint x="495" y="1372" as="sourcePoint" />
            <mxPoint x="695" y="1380" as="targetPoint" />
          </mxGeometry>
        </mxCell>
        <mxCell id="PyNdP-7tMBmTOxRlOTpd-113" value="Update New Order" style="edgeLabel;html=1;align=center;verticalAlign=middle;resizable=0;points=[];" parent="PyNdP-7tMBmTOxRlOTpd-112" vertex="1" connectable="0">
          <mxGeometry x="0.4801" y="-2" relative="1" as="geometry">
            <mxPoint x="-36" y="-3" as="offset" />
          </mxGeometry>
        </mxCell>
        <mxCell id="PyNdP-7tMBmTOxRlOTpd-114" value="" style="endArrow=classic;html=1;rounded=0;exitX=-0.013;exitY=0.601;exitDx=0;exitDy=0;exitPerimeter=0;entryX=1;entryY=0.75;entryDx=0;entryDy=0;" parent="1" edge="1">
          <mxGeometry width="50" height="50" relative="1" as="geometry">
            <mxPoint x="693" y="1402" as="sourcePoint" />
            <mxPoint x="495" y="1400" as="targetPoint" />
          </mxGeometry>
        </mxCell>
        <mxCell id="PyNdP-7tMBmTOxRlOTpd-115" value="Gets Old Order Data" style="edgeLabel;html=1;align=center;verticalAlign=middle;resizable=0;points=[];" parent="PyNdP-7tMBmTOxRlOTpd-114" vertex="1" connectable="0">
          <mxGeometry x="0.4801" y="-2" relative="1" as="geometry">
            <mxPoint x="59" y="4" as="offset" />
          </mxGeometry>
        </mxCell>
        <mxCell id="PyNdP-7tMBmTOxRlOTpd-117" value="Admin" style="rounded=0;whiteSpace=wrap;html=1;fontSize=18;" parent="1" vertex="1">
          <mxGeometry x="30" y="1560" width="120" height="50" as="geometry" />
        </mxCell>
        <mxCell id="PyNdP-7tMBmTOxRlOTpd-118" value="&lt;span style=&quot;font-size: 18px;&quot;&gt;&lt;b&gt;Balance Sheet&lt;/b&gt;&lt;/span&gt;" style="ellipse;whiteSpace=wrap;html=1;aspect=fixed;" parent="1" vertex="1">
          <mxGeometry x="350" y="1510" width="150" height="150" as="geometry" />
        </mxCell>
        <mxCell id="PyNdP-7tMBmTOxRlOTpd-119" value="" style="endArrow=none;html=1;rounded=0;entryX=0.889;entryY=0.188;entryDx=0;entryDy=0;exitX=0.1;exitY=0.193;exitDx=0;exitDy=0;exitPerimeter=0;entryPerimeter=0;" parent="1" source="PyNdP-7tMBmTOxRlOTpd-118" target="PyNdP-7tMBmTOxRlOTpd-118" edge="1">
          <mxGeometry width="50" height="50" relative="1" as="geometry">
            <mxPoint x="380" y="1630" as="sourcePoint" />
            <mxPoint x="430" y="1580" as="targetPoint" />
          </mxGeometry>
        </mxCell>
        <mxCell id="PyNdP-7tMBmTOxRlOTpd-120" value="8.0" style="text;html=1;align=center;verticalAlign=middle;resizable=0;points=[];autosize=1;strokeColor=none;fillColor=none;fontStyle=1;fontSize=16;" parent="1" vertex="1">
          <mxGeometry x="400" y="1510" width="50" height="30" as="geometry" />
        </mxCell>
        <mxCell id="PyNdP-7tMBmTOxRlOTpd-121" value="Balance Sheet Database" style="shape=partialRectangle;whiteSpace=wrap;html=1;left=0;right=0;fillColor=none;fontStyle=0;fontSize=14;" parent="1" vertex="1">
          <mxGeometry x="710" y="1560" width="120" height="40" as="geometry" />
        </mxCell>
        <mxCell id="PyNdP-7tMBmTOxRlOTpd-122" value="" style="endArrow=classic;html=1;rounded=0;exitX=1;exitY=0.25;exitDx=0;exitDy=0;entryX=-0.005;entryY=0.405;entryDx=0;entryDy=0;entryPerimeter=0;" parent="1" source="PyNdP-7tMBmTOxRlOTpd-117" target="PyNdP-7tMBmTOxRlOTpd-118" edge="1">
          <mxGeometry width="50" height="50" relative="1" as="geometry">
            <mxPoint x="380" y="1680" as="sourcePoint" />
            <mxPoint x="430" y="1630" as="targetPoint" />
          </mxGeometry>
        </mxCell>
        <mxCell id="PyNdP-7tMBmTOxRlOTpd-123" value="Try Update Balance Sheet" style="edgeLabel;html=1;align=center;verticalAlign=middle;resizable=0;points=[];" parent="PyNdP-7tMBmTOxRlOTpd-122" vertex="1" connectable="0">
          <mxGeometry x="0.4801" y="-2" relative="1" as="geometry">
            <mxPoint x="-36" y="-3" as="offset" />
          </mxGeometry>
        </mxCell>
        <mxCell id="PyNdP-7tMBmTOxRlOTpd-124" value="" style="endArrow=classic;html=1;rounded=0;exitX=-0.005;exitY=0.57;exitDx=0;exitDy=0;exitPerimeter=0;entryX=1;entryY=0.75;entryDx=0;entryDy=0;" parent="1" source="PyNdP-7tMBmTOxRlOTpd-118" target="PyNdP-7tMBmTOxRlOTpd-117" edge="1">
          <mxGeometry width="50" height="50" relative="1" as="geometry">
            <mxPoint x="418.04999999999995" y="1598" as="sourcePoint" />
            <mxPoint x="190" y="1600" as="targetPoint" />
          </mxGeometry>
        </mxCell>
        <mxCell id="PyNdP-7tMBmTOxRlOTpd-125" value="View Balance sheet" style="edgeLabel;html=1;align=center;verticalAlign=middle;resizable=0;points=[];" parent="PyNdP-7tMBmTOxRlOTpd-124" vertex="1" connectable="0">
          <mxGeometry x="0.4801" y="-2" relative="1" as="geometry">
            <mxPoint x="59" y="4" as="offset" />
          </mxGeometry>
        </mxCell>
        <mxCell id="PyNdP-7tMBmTOxRlOTpd-126" value="" style="endArrow=classic;html=1;rounded=0;exitX=1.022;exitY=0.397;exitDx=0;exitDy=0;exitPerimeter=0;" parent="1" source="PyNdP-7tMBmTOxRlOTpd-118" edge="1">
          <mxGeometry width="50" height="50" relative="1" as="geometry">
            <mxPoint x="500" y="1562" as="sourcePoint" />
            <mxPoint x="700" y="1570" as="targetPoint" />
          </mxGeometry>
        </mxCell>
        <mxCell id="PyNdP-7tMBmTOxRlOTpd-127" value="Update or insert new Entry" style="edgeLabel;html=1;align=center;verticalAlign=middle;resizable=0;points=[];" parent="PyNdP-7tMBmTOxRlOTpd-126" vertex="1" connectable="0">
          <mxGeometry x="0.4801" y="-2" relative="1" as="geometry">
            <mxPoint x="-36" y="-3" as="offset" />
          </mxGeometry>
        </mxCell>
        <mxCell id="PyNdP-7tMBmTOxRlOTpd-128" value="" style="endArrow=classic;html=1;rounded=0;exitX=-0.013;exitY=0.601;exitDx=0;exitDy=0;exitPerimeter=0;entryX=1;entryY=0.75;entryDx=0;entryDy=0;" parent="1" edge="1">
          <mxGeometry width="50" height="50" relative="1" as="geometry">
            <mxPoint x="698" y="1592" as="sourcePoint" />
            <mxPoint x="500" y="1590" as="targetPoint" />
          </mxGeometry>
        </mxCell>
        <mxCell id="PyNdP-7tMBmTOxRlOTpd-129" value="Gets Balance Sheet Data" style="edgeLabel;html=1;align=center;verticalAlign=middle;resizable=0;points=[];" parent="PyNdP-7tMBmTOxRlOTpd-128" vertex="1" connectable="0">
          <mxGeometry x="0.4801" y="-2" relative="1" as="geometry">
            <mxPoint x="59" y="4" as="offset" />
          </mxGeometry>
        </mxCell>
        <mxCell id="PyNdP-7tMBmTOxRlOTpd-131" value="Customer" style="rounded=0;whiteSpace=wrap;html=1;fontSize=18;" parent="1" vertex="1">
          <mxGeometry x="25" y="1768" width="120" height="50" as="geometry" />
        </mxCell>
        <mxCell id="PyNdP-7tMBmTOxRlOTpd-132" value="&lt;span style=&quot;font-size: 18px;&quot;&gt;&lt;b&gt;Payment&lt;/b&gt;&lt;/span&gt;" style="ellipse;whiteSpace=wrap;html=1;aspect=fixed;" parent="1" vertex="1">
          <mxGeometry x="345" y="1718" width="150" height="150" as="geometry" />
        </mxCell>
        <mxCell id="PyNdP-7tMBmTOxRlOTpd-133" value="" style="endArrow=none;html=1;rounded=0;entryX=0.889;entryY=0.188;entryDx=0;entryDy=0;exitX=0.1;exitY=0.193;exitDx=0;exitDy=0;exitPerimeter=0;entryPerimeter=0;" parent="1" source="PyNdP-7tMBmTOxRlOTpd-132" target="PyNdP-7tMBmTOxRlOTpd-132" edge="1">
          <mxGeometry width="50" height="50" relative="1" as="geometry">
            <mxPoint x="375" y="1838" as="sourcePoint" />
            <mxPoint x="425" y="1788" as="targetPoint" />
          </mxGeometry>
        </mxCell>
        <mxCell id="PyNdP-7tMBmTOxRlOTpd-134" value="9.0" style="text;html=1;align=center;verticalAlign=middle;resizable=0;points=[];autosize=1;strokeColor=none;fillColor=none;fontStyle=1;fontSize=16;" parent="1" vertex="1">
          <mxGeometry x="395" y="1718" width="50" height="30" as="geometry" />
        </mxCell>
        <mxCell id="PyNdP-7tMBmTOxRlOTpd-135" value="Payment&lt;div&gt;Database&lt;/div&gt;" style="shape=partialRectangle;whiteSpace=wrap;html=1;left=0;right=0;fillColor=none;fontStyle=0;fontSize=14;" parent="1" vertex="1">
          <mxGeometry x="705" y="1768" width="120" height="40" as="geometry" />
        </mxCell>
        <mxCell id="PyNdP-7tMBmTOxRlOTpd-136" value="" style="endArrow=classic;html=1;rounded=0;exitX=1;exitY=0.25;exitDx=0;exitDy=0;entryX=-0.005;entryY=0.405;entryDx=0;entryDy=0;entryPerimeter=0;" parent="1" source="PyNdP-7tMBmTOxRlOTpd-131" target="PyNdP-7tMBmTOxRlOTpd-132" edge="1">
          <mxGeometry width="50" height="50" relative="1" as="geometry">
            <mxPoint x="375" y="1888" as="sourcePoint" />
            <mxPoint x="425" y="1838" as="targetPoint" />
          </mxGeometry>
        </mxCell>
        <mxCell id="PyNdP-7tMBmTOxRlOTpd-137" value="Payment Details" style="edgeLabel;html=1;align=center;verticalAlign=middle;resizable=0;points=[];" parent="PyNdP-7tMBmTOxRlOTpd-136" vertex="1" connectable="0">
          <mxGeometry x="0.4801" y="-2" relative="1" as="geometry">
            <mxPoint x="-36" y="-3" as="offset" />
          </mxGeometry>
        </mxCell>
        <mxCell id="PyNdP-7tMBmTOxRlOTpd-138" value="" style="endArrow=classic;html=1;rounded=0;exitX=-0.005;exitY=0.57;exitDx=0;exitDy=0;exitPerimeter=0;entryX=1;entryY=0.75;entryDx=0;entryDy=0;" parent="1" source="PyNdP-7tMBmTOxRlOTpd-132" target="PyNdP-7tMBmTOxRlOTpd-131" edge="1">
          <mxGeometry width="50" height="50" relative="1" as="geometry">
            <mxPoint x="413.04999999999995" y="1806" as="sourcePoint" />
            <mxPoint x="185" y="1808" as="targetPoint" />
          </mxGeometry>
        </mxCell>
        <mxCell id="PyNdP-7tMBmTOxRlOTpd-139" value="Gets Confirmation" style="edgeLabel;html=1;align=center;verticalAlign=middle;resizable=0;points=[];" parent="PyNdP-7tMBmTOxRlOTpd-138" vertex="1" connectable="0">
          <mxGeometry x="0.4801" y="-2" relative="1" as="geometry">
            <mxPoint x="59" y="4" as="offset" />
          </mxGeometry>
        </mxCell>
        <mxCell id="PyNdP-7tMBmTOxRlOTpd-140" value="" style="endArrow=classic;html=1;rounded=0;exitX=1.022;exitY=0.397;exitDx=0;exitDy=0;exitPerimeter=0;" parent="1" source="PyNdP-7tMBmTOxRlOTpd-132" edge="1">
          <mxGeometry width="50" height="50" relative="1" as="geometry">
            <mxPoint x="495" y="1770" as="sourcePoint" />
            <mxPoint x="695" y="1778" as="targetPoint" />
          </mxGeometry>
        </mxCell>
        <mxCell id="PyNdP-7tMBmTOxRlOTpd-141" value="Payment Verification" style="edgeLabel;html=1;align=center;verticalAlign=middle;resizable=0;points=[];" parent="PyNdP-7tMBmTOxRlOTpd-140" vertex="1" connectable="0">
          <mxGeometry x="0.4801" y="-2" relative="1" as="geometry">
            <mxPoint x="-36" y="-3" as="offset" />
          </mxGeometry>
        </mxCell>
        <mxCell id="PyNdP-7tMBmTOxRlOTpd-142" value="" style="endArrow=classic;html=1;rounded=0;exitX=-0.013;exitY=0.601;exitDx=0;exitDy=0;exitPerimeter=0;entryX=1;entryY=0.75;entryDx=0;entryDy=0;" parent="1" edge="1">
          <mxGeometry width="50" height="50" relative="1" as="geometry">
            <mxPoint x="693" y="1800" as="sourcePoint" />
            <mxPoint x="495" y="1798" as="targetPoint" />
          </mxGeometry>
        </mxCell>
        <mxCell id="PyNdP-7tMBmTOxRlOTpd-144" value="Responce" style="edgeLabel;html=1;align=center;verticalAlign=middle;resizable=0;points=[];" parent="PyNdP-7tMBmTOxRlOTpd-142" vertex="1" connectable="0">
          <mxGeometry x="-0.1388" y="-3" relative="1" as="geometry">
            <mxPoint x="-1" as="offset" />
          </mxGeometry>
        </mxCell>
        <mxCell id="PyNdP-7tMBmTOxRlOTpd-146" value="&lt;span style=&quot;font-size: 18px;&quot;&gt;&lt;b&gt;Report Generation&lt;/b&gt;&lt;/span&gt;" style="ellipse;whiteSpace=wrap;html=1;aspect=fixed;" parent="1" vertex="1">
          <mxGeometry x="325" y="2377" width="150" height="150" as="geometry" />
        </mxCell>
        <mxCell id="PyNdP-7tMBmTOxRlOTpd-147" value="" style="endArrow=none;html=1;rounded=0;entryX=0.889;entryY=0.188;entryDx=0;entryDy=0;exitX=0.1;exitY=0.193;exitDx=0;exitDy=0;exitPerimeter=0;entryPerimeter=0;" parent="1" source="PyNdP-7tMBmTOxRlOTpd-146" target="PyNdP-7tMBmTOxRlOTpd-146" edge="1">
          <mxGeometry width="50" height="50" relative="1" as="geometry">
            <mxPoint x="355" y="2497" as="sourcePoint" />
            <mxPoint x="405" y="2447" as="targetPoint" />
          </mxGeometry>
        </mxCell>
        <mxCell id="PyNdP-7tMBmTOxRlOTpd-148" value="11.0" style="text;html=1;align=center;verticalAlign=middle;resizable=0;points=[];autosize=1;strokeColor=none;fillColor=none;fontStyle=1;fontSize=16;" parent="1" vertex="1">
          <mxGeometry x="375" y="2377" width="50" height="30" as="geometry" />
        </mxCell>
        <mxCell id="PyNdP-7tMBmTOxRlOTpd-149" value="Registration Database" style="shape=partialRectangle;whiteSpace=wrap;html=1;left=0;right=0;fillColor=none;fontStyle=0;fontSize=14;" parent="1" vertex="1">
          <mxGeometry x="695" y="2257" width="120" height="40" as="geometry" />
        </mxCell>
        <mxCell id="PyNdP-7tMBmTOxRlOTpd-152" value="" style="endArrow=classic;html=1;rounded=0;exitX=-0.005;exitY=0.57;exitDx=0;exitDy=0;exitPerimeter=0;entryX=1;entryY=0.75;entryDx=0;entryDy=0;" parent="1" edge="1">
          <mxGeometry width="50" height="50" relative="1" as="geometry">
            <mxPoint x="324.9999999999998" y="2451" as="sourcePoint" />
            <mxPoint x="125.75" y="2453" as="targetPoint" />
          </mxGeometry>
        </mxCell>
        <mxCell id="PyNdP-7tMBmTOxRlOTpd-153" value="All Details Dispaly" style="edgeLabel;html=1;align=center;verticalAlign=middle;resizable=0;points=[];" parent="PyNdP-7tMBmTOxRlOTpd-152" vertex="1" connectable="0">
          <mxGeometry x="0.4801" y="-2" relative="1" as="geometry">
            <mxPoint x="59" y="4" as="offset" />
          </mxGeometry>
        </mxCell>
        <mxCell id="PyNdP-7tMBmTOxRlOTpd-158" value="Report&amp;nbsp;&lt;div&gt;Database&lt;/div&gt;" style="shape=partialRectangle;whiteSpace=wrap;html=1;left=0;right=0;fillColor=none;fontStyle=0;fontSize=14;" parent="1" vertex="1">
          <mxGeometry y="2432" width="120" height="40" as="geometry" />
        </mxCell>
        <mxCell id="PyNdP-7tMBmTOxRlOTpd-160" value="Login&lt;div&gt;Database&lt;/div&gt;" style="shape=partialRectangle;whiteSpace=wrap;html=1;left=0;right=0;fillColor=none;fontStyle=0;fontSize=14;" parent="1" vertex="1">
          <mxGeometry x="695" y="2322" width="120" height="40" as="geometry" />
        </mxCell>
        <mxCell id="PyNdP-7tMBmTOxRlOTpd-163" value="" style="endArrow=classic;html=1;rounded=0;entryX=1;entryY=0;entryDx=0;entryDy=0;exitX=0;exitY=0.5;exitDx=0;exitDy=0;entryPerimeter=0;" parent="1" source="PyNdP-7tMBmTOxRlOTpd-149" target="PyNdP-7tMBmTOxRlOTpd-148" edge="1">
          <mxGeometry width="50" height="50" relative="1" as="geometry">
            <mxPoint x="375" y="2327" as="sourcePoint" />
            <mxPoint x="425" y="2277" as="targetPoint" />
          </mxGeometry>
        </mxCell>
        <mxCell id="PyNdP-7tMBmTOxRlOTpd-166" value="Registration Details" style="edgeLabel;html=1;align=center;verticalAlign=middle;resizable=0;points=[];rotation=-15;" parent="PyNdP-7tMBmTOxRlOTpd-163" vertex="1" connectable="0">
          <mxGeometry x="0.0146" y="1" relative="1" as="geometry">
            <mxPoint as="offset" />
          </mxGeometry>
        </mxCell>
        <mxCell id="PyNdP-7tMBmTOxRlOTpd-167" value="" style="endArrow=classic;html=1;rounded=0;entryX=1;entryY=0;entryDx=0;entryDy=0;exitX=0;exitY=0.25;exitDx=0;exitDy=0;entryPerimeter=0;" parent="1" source="PyNdP-7tMBmTOxRlOTpd-160" edge="1">
          <mxGeometry width="50" height="50" relative="1" as="geometry">
            <mxPoint x="725" y="2307" as="sourcePoint" />
            <mxPoint x="455" y="2397" as="targetPoint" />
          </mxGeometry>
        </mxCell>
        <mxCell id="PyNdP-7tMBmTOxRlOTpd-168" value="Login Details" style="edgeLabel;html=1;align=center;verticalAlign=middle;resizable=0;points=[];rotation=-15;" parent="PyNdP-7tMBmTOxRlOTpd-167" vertex="1" connectable="0">
          <mxGeometry x="0.0146" y="1" relative="1" as="geometry">
            <mxPoint as="offset" />
          </mxGeometry>
        </mxCell>
        <mxCell id="PyNdP-7tMBmTOxRlOTpd-169" value="&lt;div&gt;Billing Database&lt;/div&gt;" style="shape=partialRectangle;whiteSpace=wrap;html=1;left=0;right=0;fillColor=none;fontStyle=0;fontSize=14;" parent="1" vertex="1">
          <mxGeometry x="695" y="2377" width="120" height="40" as="geometry" />
        </mxCell>
        <mxCell id="PyNdP-7tMBmTOxRlOTpd-170" value="" style="endArrow=classic;html=1;rounded=0;entryX=1;entryY=0.333;entryDx=0;entryDy=0;exitX=0;exitY=0.25;exitDx=0;exitDy=0;entryPerimeter=0;" parent="1" source="PyNdP-7tMBmTOxRlOTpd-169" target="PyNdP-7tMBmTOxRlOTpd-146" edge="1">
          <mxGeometry width="50" height="50" relative="1" as="geometry">
            <mxPoint x="725" y="2362" as="sourcePoint" />
            <mxPoint x="455" y="2452" as="targetPoint" />
            <Array as="points">
              <mxPoint x="585" y="2397" />
            </Array>
          </mxGeometry>
        </mxCell>
        <mxCell id="PyNdP-7tMBmTOxRlOTpd-171" value="Billing Details" style="edgeLabel;html=1;align=center;verticalAlign=middle;resizable=0;points=[];rotation=-10;" parent="PyNdP-7tMBmTOxRlOTpd-170" vertex="1" connectable="0">
          <mxGeometry x="0.0146" y="1" relative="1" as="geometry">
            <mxPoint as="offset" />
          </mxGeometry>
        </mxCell>
        <mxCell id="PyNdP-7tMBmTOxRlOTpd-172" value="&lt;div&gt;Stock&lt;/div&gt;&lt;div&gt;Database&lt;/div&gt;" style="shape=partialRectangle;whiteSpace=wrap;html=1;left=0;right=0;fillColor=none;fontStyle=0;fontSize=14;" parent="1" vertex="1">
          <mxGeometry x="695" y="2432" width="120" height="40" as="geometry" />
        </mxCell>
        <mxCell id="PyNdP-7tMBmTOxRlOTpd-173" value="" style="endArrow=classic;html=1;rounded=0;entryX=1;entryY=0.5;entryDx=0;entryDy=0;exitX=0;exitY=0.25;exitDx=0;exitDy=0;" parent="1" source="PyNdP-7tMBmTOxRlOTpd-172" target="PyNdP-7tMBmTOxRlOTpd-146" edge="1">
          <mxGeometry width="50" height="50" relative="1" as="geometry">
            <mxPoint x="725" y="2417" as="sourcePoint" />
            <mxPoint x="475" y="2482" as="targetPoint" />
            <Array as="points">
              <mxPoint x="585" y="2427" />
            </Array>
          </mxGeometry>
        </mxCell>
        <mxCell id="PyNdP-7tMBmTOxRlOTpd-174" value="Stock Details" style="edgeLabel;html=1;align=center;verticalAlign=middle;resizable=0;points=[];rotation=0;" parent="PyNdP-7tMBmTOxRlOTpd-173" vertex="1" connectable="0">
          <mxGeometry x="0.0146" y="1" relative="1" as="geometry">
            <mxPoint as="offset" />
          </mxGeometry>
        </mxCell>
        <mxCell id="PyNdP-7tMBmTOxRlOTpd-175" value="&lt;div&gt;Staff&lt;/div&gt;&lt;div&gt;Database&lt;/div&gt;" style="shape=partialRectangle;whiteSpace=wrap;html=1;left=0;right=0;fillColor=none;fontStyle=0;fontSize=14;" parent="1" vertex="1">
          <mxGeometry x="695" y="2487" width="120" height="40" as="geometry" />
        </mxCell>
        <mxCell id="PyNdP-7tMBmTOxRlOTpd-176" value="" style="endArrow=classic;html=1;rounded=0;entryX=0.965;entryY=0.654;entryDx=0;entryDy=0;exitX=0;exitY=0.25;exitDx=0;exitDy=0;entryPerimeter=0;" parent="1" source="PyNdP-7tMBmTOxRlOTpd-175" target="PyNdP-7tMBmTOxRlOTpd-146" edge="1">
          <mxGeometry width="50" height="50" relative="1" as="geometry">
            <mxPoint x="725" y="2472" as="sourcePoint" />
            <mxPoint x="475" y="2507" as="targetPoint" />
            <Array as="points">
              <mxPoint x="585" y="2467" />
            </Array>
          </mxGeometry>
        </mxCell>
        <mxCell id="PyNdP-7tMBmTOxRlOTpd-177" value="Staff Details" style="edgeLabel;html=1;align=center;verticalAlign=middle;resizable=0;points=[];rotation=0;" parent="PyNdP-7tMBmTOxRlOTpd-176" vertex="1" connectable="0">
          <mxGeometry x="0.0146" y="1" relative="1" as="geometry">
            <mxPoint as="offset" />
          </mxGeometry>
        </mxCell>
        <mxCell id="PyNdP-7tMBmTOxRlOTpd-178" value="&lt;div&gt;Order&lt;/div&gt;&lt;div&gt;Database&lt;/div&gt;" style="shape=partialRectangle;whiteSpace=wrap;html=1;left=0;right=0;fillColor=none;fontStyle=0;fontSize=14;" parent="1" vertex="1">
          <mxGeometry x="700" y="2539" width="120" height="40" as="geometry" />
        </mxCell>
        <mxCell id="PyNdP-7tMBmTOxRlOTpd-179" value="" style="endArrow=classic;html=1;rounded=0;entryX=0.942;entryY=0.765;entryDx=0;entryDy=0;exitX=0;exitY=0.25;exitDx=0;exitDy=0;entryPerimeter=0;" parent="1" source="PyNdP-7tMBmTOxRlOTpd-178" target="PyNdP-7tMBmTOxRlOTpd-146" edge="1">
          <mxGeometry width="50" height="50" relative="1" as="geometry">
            <mxPoint x="730" y="2524" as="sourcePoint" />
            <mxPoint x="475" y="2527" as="targetPoint" />
            <Array as="points">
              <mxPoint x="590" y="2507" />
            </Array>
          </mxGeometry>
        </mxCell>
        <mxCell id="PyNdP-7tMBmTOxRlOTpd-180" value="Order Details" style="edgeLabel;html=1;align=center;verticalAlign=middle;resizable=0;points=[];rotation=15;" parent="PyNdP-7tMBmTOxRlOTpd-179" vertex="1" connectable="0">
          <mxGeometry x="0.0146" y="1" relative="1" as="geometry">
            <mxPoint as="offset" />
          </mxGeometry>
        </mxCell>
        <mxCell id="PyNdP-7tMBmTOxRlOTpd-181" value="&lt;div&gt;Payment&lt;/div&gt;&lt;div&gt;Database&lt;/div&gt;" style="shape=partialRectangle;whiteSpace=wrap;html=1;left=0;right=0;fillColor=none;fontStyle=0;fontSize=14;" parent="1" vertex="1">
          <mxGeometry x="700" y="2600" width="120" height="40" as="geometry" />
        </mxCell>
        <mxCell id="PyNdP-7tMBmTOxRlOTpd-182" value="" style="endArrow=classic;html=1;rounded=0;entryX=1;entryY=1;entryDx=0;entryDy=0;exitX=0;exitY=0.25;exitDx=0;exitDy=0;" parent="1" source="PyNdP-7tMBmTOxRlOTpd-181" target="PyNdP-7tMBmTOxRlOTpd-146" edge="1">
          <mxGeometry width="50" height="50" relative="1" as="geometry">
            <mxPoint x="610" y="2571" as="sourcePoint" />
            <mxPoint x="346" y="2539" as="targetPoint" />
            <Array as="points">
              <mxPoint x="570" y="2540" />
            </Array>
          </mxGeometry>
        </mxCell>
        <mxCell id="PyNdP-7tMBmTOxRlOTpd-183" value="Payment Details" style="edgeLabel;html=1;align=center;verticalAlign=middle;resizable=0;points=[];rotation=15;" parent="PyNdP-7tMBmTOxRlOTpd-182" vertex="1" connectable="0">
          <mxGeometry x="0.0146" y="1" relative="1" as="geometry">
            <mxPoint x="-14" y="-7" as="offset" />
          </mxGeometry>
        </mxCell>
        <mxCell id="PyNdP-7tMBmTOxRlOTpd-184" value="&lt;div&gt;Balance Sheet&lt;/div&gt;&lt;div&gt;Database&lt;/div&gt;" style="shape=partialRectangle;whiteSpace=wrap;html=1;left=0;right=0;fillColor=none;fontStyle=0;fontSize=14;" parent="1" vertex="1">
          <mxGeometry x="702" y="2660" width="120" height="40" as="geometry" />
        </mxCell>
        <mxCell id="PyNdP-7tMBmTOxRlOTpd-185" value="" style="endArrow=classic;html=1;rounded=0;exitX=0.25;exitY=0;exitDx=0;exitDy=0;entryX=0.693;entryY=0.98;entryDx=0;entryDy=0;entryPerimeter=0;" parent="1" source="PyNdP-7tMBmTOxRlOTpd-184" target="PyNdP-7tMBmTOxRlOTpd-146" edge="1">
          <mxGeometry width="50" height="50" relative="1" as="geometry">
            <mxPoint x="310" y="2571" as="sourcePoint" />
            <mxPoint x="153" y="2505" as="targetPoint" />
            <Array as="points">
              <mxPoint x="550" y="2570" />
            </Array>
          </mxGeometry>
        </mxCell>
        <mxCell id="PyNdP-7tMBmTOxRlOTpd-186" value="Balance Sheet Details" style="edgeLabel;html=1;align=center;verticalAlign=middle;resizable=0;points=[];rotation=20;" parent="PyNdP-7tMBmTOxRlOTpd-185" vertex="1" connectable="0">
          <mxGeometry x="0.0146" y="1" relative="1" as="geometry">
            <mxPoint x="-30" y="-16" as="offset" />
          </mxGeometry>
        </mxCell>
        <mxCell id="q5eRJY-VTJPa9b3ydSC4-1" value="Customer" style="rounded=0;whiteSpace=wrap;html=1;fontSize=18;" vertex="1" parent="1">
          <mxGeometry x="25" y="1990" width="120" height="50" as="geometry" />
        </mxCell>
        <mxCell id="q5eRJY-VTJPa9b3ydSC4-2" value="&lt;span style=&quot;font-size: 18px;&quot;&gt;&lt;b&gt;Supplier Ordering&lt;/b&gt;&lt;/span&gt;" style="ellipse;whiteSpace=wrap;html=1;aspect=fixed;" vertex="1" parent="1">
          <mxGeometry x="345" y="1940" width="150" height="150" as="geometry" />
        </mxCell>
        <mxCell id="q5eRJY-VTJPa9b3ydSC4-3" value="" style="endArrow=none;html=1;rounded=0;entryX=0.889;entryY=0.188;entryDx=0;entryDy=0;exitX=0.1;exitY=0.193;exitDx=0;exitDy=0;exitPerimeter=0;entryPerimeter=0;elbow=vertical;" edge="1" parent="1" source="q5eRJY-VTJPa9b3ydSC4-2" target="q5eRJY-VTJPa9b3ydSC4-2">
          <mxGeometry width="50" height="50" relative="1" as="geometry">
            <mxPoint x="375" y="2060" as="sourcePoint" />
            <mxPoint x="425" y="2010" as="targetPoint" />
          </mxGeometry>
        </mxCell>
        <mxCell id="q5eRJY-VTJPa9b3ydSC4-4" value="10.0" style="text;html=1;align=center;verticalAlign=middle;resizable=0;points=[];autosize=1;strokeColor=none;fillColor=none;fontStyle=1;fontSize=16;" vertex="1" parent="1">
          <mxGeometry x="395" y="1940" width="50" height="30" as="geometry" />
        </mxCell>
        <mxCell id="q5eRJY-VTJPa9b3ydSC4-5" value="&lt;div&gt;Order&amp;nbsp;&lt;/div&gt;&lt;div&gt;Database&lt;/div&gt;" style="shape=partialRectangle;whiteSpace=wrap;html=1;left=0;right=0;fillColor=none;fontStyle=0;fontSize=14;" vertex="1" parent="1">
          <mxGeometry x="705" y="1990" width="120" height="40" as="geometry" />
        </mxCell>
        <mxCell id="q5eRJY-VTJPa9b3ydSC4-6" value="" style="endArrow=classic;html=1;rounded=0;exitX=1;exitY=0.25;exitDx=0;exitDy=0;entryX=-0.005;entryY=0.405;entryDx=0;entryDy=0;entryPerimeter=0;" edge="1" parent="1" source="q5eRJY-VTJPa9b3ydSC4-1" target="q5eRJY-VTJPa9b3ydSC4-2">
          <mxGeometry width="50" height="50" relative="1" as="geometry">
            <mxPoint x="375" y="2110" as="sourcePoint" />
            <mxPoint x="425" y="2060" as="targetPoint" />
          </mxGeometry>
        </mxCell>
        <mxCell id="q5eRJY-VTJPa9b3ydSC4-7" value="Supplies Product" style="edgeLabel;html=1;align=center;verticalAlign=middle;resizable=0;points=[];" vertex="1" connectable="0" parent="q5eRJY-VTJPa9b3ydSC4-6">
          <mxGeometry x="0.4801" y="-2" relative="1" as="geometry">
            <mxPoint x="-36" y="-3" as="offset" />
          </mxGeometry>
        </mxCell>
        <mxCell id="q5eRJY-VTJPa9b3ydSC4-8" value="" style="endArrow=classic;html=1;rounded=0;exitX=-0.005;exitY=0.57;exitDx=0;exitDy=0;exitPerimeter=0;entryX=1;entryY=0.75;entryDx=0;entryDy=0;" edge="1" parent="1" source="q5eRJY-VTJPa9b3ydSC4-2" target="q5eRJY-VTJPa9b3ydSC4-1">
          <mxGeometry width="50" height="50" relative="1" as="geometry">
            <mxPoint x="413.04999999999995" y="2028" as="sourcePoint" />
            <mxPoint x="185" y="2030" as="targetPoint" />
          </mxGeometry>
        </mxCell>
        <mxCell id="q5eRJY-VTJPa9b3ydSC4-9" value="Gets Order" style="edgeLabel;html=1;align=center;verticalAlign=middle;resizable=0;points=[];" vertex="1" connectable="0" parent="q5eRJY-VTJPa9b3ydSC4-8">
          <mxGeometry x="0.4801" y="-2" relative="1" as="geometry">
            <mxPoint x="59" y="4" as="offset" />
          </mxGeometry>
        </mxCell>
        <mxCell id="q5eRJY-VTJPa9b3ydSC4-10" value="" style="endArrow=classic;html=1;rounded=0;exitX=1.022;exitY=0.397;exitDx=0;exitDy=0;exitPerimeter=0;" edge="1" parent="1" source="q5eRJY-VTJPa9b3ydSC4-2">
          <mxGeometry width="50" height="50" relative="1" as="geometry">
            <mxPoint x="495" y="1992" as="sourcePoint" />
            <mxPoint x="695" y="2000" as="targetPoint" />
          </mxGeometry>
        </mxCell>
        <mxCell id="q5eRJY-VTJPa9b3ydSC4-11" value="Update To Database" style="edgeLabel;html=1;align=center;verticalAlign=middle;resizable=0;points=[];" vertex="1" connectable="0" parent="q5eRJY-VTJPa9b3ydSC4-10">
          <mxGeometry x="0.4801" y="-2" relative="1" as="geometry">
            <mxPoint x="-36" y="-3" as="offset" />
          </mxGeometry>
        </mxCell>
        <mxCell id="q5eRJY-VTJPa9b3ydSC4-12" value="" style="endArrow=classic;html=1;rounded=0;exitX=-0.013;exitY=0.601;exitDx=0;exitDy=0;exitPerimeter=0;entryX=1;entryY=0.75;entryDx=0;entryDy=0;" edge="1" parent="1">
          <mxGeometry width="50" height="50" relative="1" as="geometry">
            <mxPoint x="693" y="2022" as="sourcePoint" />
            <mxPoint x="495" y="2020" as="targetPoint" />
          </mxGeometry>
        </mxCell>
        <mxCell id="q5eRJY-VTJPa9b3ydSC4-13" value="Fetch Data Form Database" style="edgeLabel;html=1;align=center;verticalAlign=middle;resizable=0;points=[];" vertex="1" connectable="0" parent="q5eRJY-VTJPa9b3ydSC4-12">
          <mxGeometry x="-0.1388" y="-3" relative="1" as="geometry">
            <mxPoint x="-1" as="offset" />
          </mxGeometry>
        </mxCell>
      </root>
    </mxGraphModel>
  </diagram>
</mxfile>
